<?xml version="1.0" encoding="UTF-8" standalone="no"?>
<!DOCTYPE svg PUBLIC "-//W3C//DTD SVG 1.1//EN" "http://www.w3.org/Graphics/SVG/1.1/DTD/svg11.dtd">
<svg width="100%" height="100%" viewBox="0 0 843 208" version="1.1" xmlns="http://www.w3.org/2000/svg" xmlns:xlink="http://www.w3.org/1999/xlink" xml:space="preserve" xmlns:serif="http://www.serif.com/" style="fill-rule:evenodd;clip-rule:evenodd;stroke-linejoin:round;stroke-miterlimit:2;">
    <g id="Trim" transform="matrix(1,0,0,1,15,15)">
        <g>
            <g>
                <path d="M812.692,97.094C808.502,97.64 805.694,99.373 802.617,100.793C794.763,104.418 786.897,108.063 777.763,110.408C770.707,112.219 765.857,111.015 763.986,106.556C761.23,99.989 760.283,93.466 769.372,87.988C775.633,84.214 781.464,80.167 787.335,76.159C789.524,74.665 792.35,73.373 793.061,70.888C788.989,69.719 785.505,70.987 782.239,71.985C756.498,79.847 732.889,89.722 715.508,103.825C705.538,111.916 693.77,110.23 678.537,109.92C697.958,96.216 715.925,83.537 735.281,69.879C727.08,70.414 722.36,72.608 717.52,74.375C708.382,77.713 700.041,81.78 692.542,86.381C685.141,90.922 676.575,93.898 666.295,94.86C661.935,95.268 658.596,96.46 655.51,98.258C642.451,105.868 626.686,110.351 608.903,110.752C589.105,111.199 582.128,107.347 582.489,96.825C582.53,95.624 583.193,94.292 580.925,92.804C569.448,98.024 557.226,102.639 544.062,106.273C535.74,108.57 527.033,110.008 518.124,110.97C511.022,111.736 508.023,110.088 507.873,105.629C507.735,101.54 507.843,97.447 507.843,93.102C503.8,93.385 501.886,94.98 499.583,96.112C489.485,101.076 479.267,105.966 467.609,109.481C457.596,112.499 453.169,110.894 452.293,104.061C451.832,100.466 452.211,96.831 452.211,93.299C448.563,92.667 447.22,94.131 445.531,94.925C436.284,99.276 426.762,103.328 416.36,106.619C405.249,110.135 393.481,111.404 381.145,111.123C374.793,110.978 370.927,109.308 371.104,105.003C371.283,100.639 371.143,96.27 371.143,90.695C360.17,96.741 350.239,101.489 339.545,105.599C337.575,106.356 335.654,107.17 333.616,107.85C321.008,112.058 316.977,110.595 317.153,101.625C317.221,98.175 318.255,94.732 319.005,90.376C309.845,94.388 301.665,98.03 293.382,101.581C287.452,104.123 281.544,106.708 275.341,108.981C266.888,112.078 262.703,110.612 262.495,104.672C262.363,100.907 262.471,97.14 262.471,92.646C254.609,96.203 247.822,99.507 240.648,102.46C231.858,106.077 222.899,109.556 212.007,110.486C204.056,111.165 200.898,109.742 200.749,104.798C200.692,102.917 201.259,101.022 201.681,99.145C202.06,97.458 202.629,95.788 203.424,93.037C196.981,96.212 191.914,98.826 186.645,101.278C178.388,105.122 169.835,108.701 159.542,110.222C151.744,111.374 148.539,109.882 147.719,104.99C147.101,101.307 148.651,97.786 150.226,93.276C134.405,100.431 118.435,105.923 100.728,110.224C112.705,120.594 105.246,128.955 95.284,137.004C82.086,147.666 64.397,155.18 46.485,162.445C33.331,167.779 19.21,172.13 5.143,176.499C3.824,176.909 2.292,177.064 -0.123,176.84C26.278,147.825 57.02,120.668 91.559,95.066C91.075,94.777 90.592,94.488 90.107,94.199C83.405,97.245 76.713,100.301 69.994,103.334C66.871,104.744 63.824,106.24 60.51,107.462C56.704,108.865 53.171,111.746 48.124,110.019C43.218,108.341 45.087,104.877 44.662,102.19C44.218,99.384 45.015,96.51 45.158,93.664C45.352,89.789 47.697,86.713 52.971,84.357C64.901,79.028 77.424,74.273 90.123,69.688C92.535,68.817 95.368,67.875 98.026,67.853C116.859,67.695 135.696,67.769 155.89,68.854C138.377,81.111 120.864,93.367 103.35,105.623C103.544,105.883 103.737,106.143 103.931,106.403C106.313,105.846 108.784,105.4 111.06,104.712C123.608,100.919 135.659,96.629 146.742,91.352C151.892,88.9 156.219,86.096 159.992,82.795C163.67,79.577 168.794,76.993 172.698,73.856C181.618,66.689 193.634,67.004 207.916,68.173C188.368,81.107 166.979,92.244 152.512,108.163C161.076,108.161 166.212,106.389 171.169,104.502C193.996,95.811 213.233,84.499 231.385,72.552C236.637,69.095 241.388,67.015 249.067,67.612C253.345,67.945 257.776,67.167 263.207,68.304C245.56,81.779 225.554,93.575 208.13,107.326C213.824,108.469 217.791,107.19 221.671,106.151C236.31,102.228 248.629,96.14 260.559,89.832C275.128,82.129 290.907,75.576 307.611,69.793C311.982,68.28 316.577,67.556 321.676,67.58C340.755,67.67 359.836,67.616 381.12,67.616C357.991,79.784 339.28,92.524 322.685,107.059C327.173,107.696 329.119,106.488 331.239,105.719C348.235,99.554 363.385,91.989 377.578,83.566C423.282,56.445 469.262,29.498 515.165,2.503C516.421,1.765 518.008,1.239 520.32,0.23C524.966,5.638 523.856,11.006 521.866,16.028C514.937,33.514 497.382,46.923 475.848,58.477C459.201,67.409 440.953,74.87 418.91,78.067C417.691,78.244 416.355,78.595 415.483,79.12C401.291,87.67 389.237,97.287 376.486,107.56C386.577,109.422 395.216,108.828 403.309,106.96C423.163,102.376 440.425,95.171 455.357,85.978C465.61,79.665 476.768,74.019 488.398,68.747C493.46,66.453 499.763,67.687 507.161,68.112C491.219,81.809 471.217,92.935 459.675,107.851C467.923,107.197 474.084,104.338 480.303,101.727C504.704,91.478 525.33,78.445 548.09,66.98C566.466,57.723 584.636,48.312 602.943,39.002C604.876,38.019 606.699,36.789 612.312,36.669C598.122,47.026 585.129,56.508 571.711,66.3C579.776,68.629 587.981,66.789 596.037,68.201C593.224,70.659 589.474,70.428 586.543,70.137C571.276,68.62 560.903,72.455 551.854,79.878C541.67,88.232 529.662,95.75 518.556,103.689C516.96,104.83 514.699,105.853 514.782,107.915C519.474,109.155 523.82,107.735 527.985,106.922C548.689,102.884 567.285,96.411 583.862,87.853C594.976,82.116 606.728,76.991 619.214,72.446C629.03,68.872 639.548,66.928 650.926,67.024C669.099,67.178 676.723,73.9 670.773,84.491C669.372,86.985 667.192,89.316 665.032,92.169C673.466,92.377 679.164,89.822 684.606,86.962C695.791,81.084 706.742,75.022 719.699,70.567C721.052,70.102 722.337,69.533 723.765,69.182C733.817,66.713 741.225,65.734 740.369,75.508C740.067,78.967 739.238,82.337 737.696,86.463C750.965,80.747 762.604,74.936 776.155,70.913C780.859,69.517 785.672,68.399 790.758,67.818C796.775,67.132 800.09,68.797 800.685,72.566C801.931,80.464 800.125,87.675 789.946,93.446C785.22,96.125 781.14,99.244 776.949,102.258C774.685,103.885 771.75,105.36 771.735,108.881C787.983,105.705 799.197,98.682 812.233,92.885C812.693,94.057 812.693,95.378 812.693,97.094M636.627,71.781C619.684,81.936 604.651,93.079 590.045,104.434C603.562,111.585 635.33,107.432 649.359,97.015C644.458,96.158 639.027,98.171 634.238,95.793C644.154,91.291 653.857,87.15 663.061,82.628C671.164,78.645 669.567,72.732 659.831,70.396C652.348,68.599 644.688,68.576 636.627,71.781M91.402,113.655C64.854,132.016 38.633,150.545 13.629,169.743C25.62,167.067 36.149,163.102 46.495,158.93C65.385,151.311 82.706,142.63 96.197,131.366C100.938,127.408 103.696,123.025 102.534,118.05C101.547,113.824 97.713,112.145 91.402,113.655M472.696,56.136C487.441,48.027 500.284,38.962 509.293,28.076C514.593,21.671 519.743,15.163 518.162,6.185C486.337,29.723 455.074,51.856 423.812,74.085C442.706,71.07 457.48,64.03 472.696,56.136M270.389,103.359C269.36,104.56 267.371,105.65 270.132,108.064C298.724,96.262 327.271,84.499 353.734,70.722C345.703,69.923 338.018,69.331 330.385,69.524C323.286,69.703 316.001,69.955 310.38,73.581C296.141,82.766 282.337,92.151 270.389,103.359M50.041,106.247C54.03,108.641 56.455,105.923 58.698,104.919C78.893,95.882 98.921,86.704 118.875,77.467C123.111,75.506 126.843,73.137 132.316,70.126C120.801,69.501 111.476,68.936 101.997,69.911C97.493,70.375 93.581,71.325 90.44,73.369C75.204,83.287 60.944,93.659 50.041,106.247Z" style="fill-rule:nonzero;stroke:black;stroke-width:2.55px;"/>
                <path d="M505.988,53.044C504.19,50.472 504.603,48.401 507.057,46.499C511.252,43.249 520.191,42.564 525.012,45.276C529.315,47.696 529.4,50.5 525.823,53.249C521.053,56.916 512.811,56.931 505.988,53.044Z" style="fill-rule:nonzero;"/>
            </g>
        </g>
    </g>
</svg>
